<svg xmlns="http://www.w3.org/2000/svg" viewBox="0 0 699.36 536.15"><defs><style>.cls-1{fill:#fefefe;}.cls-2{fill:#8152a1;}.cls-3{fill:#8151a0;}</style></defs><g id="Layer_2" data-name="Layer 2"><g id="Layer_1-2" data-name="Layer 1"><path class="cls-1" d="M463,315.89c12.56-17.34,25.19-34.63,37.67-52Q590.84,138.12,681,12.34a66.8,66.8,0,0,1,9.71-10.66A7.46,7.46,0,0,1,697,.21c1.3.45,2.5,3.6,2.35,5.42-.74,9-1.83,17.87-3,26.76q-5.75,42.78-11.67,85.52-5.77,42-11.57,84T661.71,286c-1.64,12.36-2.32,25.07-11.73,34.68-5.83,5.94-12,11.54-18.19,17.12q-101.47,91.6-203,183.16c-4.7,4.24-9.38,8.51-14.15,12.67-4.05,3.54-5.9,3.19-9-1.49q-20.87-31.26-41.73-62.52c-4.18-6.26-4.18-9.26.2-15.36q39.78-55.5,79.6-111c1.05-1.47,2-3,3-4.53Z"/><path class="cls-1" d="M9.58,81.76l-6-44c-1-7.67-2-15.33-2.86-23A56.43,56.43,0,0,1,0,5.32C.13,3.51,1.09.57,2.22.27A8.28,8.28,0,0,1,8.54,1.58a37.68,37.68,0,0,1,7.58,7.86Q58.08,67.66,99.85,126q108,150.63,216,301.24a17.62,17.62,0,0,0,1.69,1.77l12.07,16.86c2.23,3.28,4.44,6.57,6.69,9.84,2.86,4.14,3,8.28.16,12.51Q314.77,500.68,293,533.15c-2.47,3.68-4.68,3.81-8.49.37q-28.05-25.23-56-50.55-48.19-43.52-96.41-87a18.16,18.16,0,0,0-2-1.39l-26.38-23.87c-15.37-14-30.69-28-46.16-41.88-6.88-6.17-13.41-12.74-16.13-21.7-2-6.6-2.68-13.64-3.63-20.52Q31.31,239.95,25,193.29q-5.7-42-11.37-83.93C12.38,100.14,10.94,91,9.58,81.76Z"/><path class="cls-2" d="M317.73,384.71c-12.83-20.08-25.46-40.3-38.57-60.21-6.86-10.42-8.47-20.77-4.57-32.87,22.22-68.77,44-137.68,66-206.53A29.25,29.25,0,0,1,343.88,78c3.21-4.85,8.58-4.81,11.71.17a39.44,39.44,0,0,1,4,9q33,103.51,65.77,207.14c1.72,5.46,1,11.7,1.34,17.58-2.33,4.45-4.45,9-7.05,13.34-4.38,7.28-9.07,14.39-13.63,21.57l-45.27,70c-2.07,3.2-4,6.48-6.2,9.59-3.36,4.78-6.4,4.84-9.67,0-4.89-7.24-9.53-14.65-14.32-22a10.23,10.23,0,0,0-1.74-1.67Z"/><path class="cls-3" d="M603.84,402a36.38,36.38,0,0,1-1.16,5.45q-17,45.68-34.09,91.3a18.73,18.73,0,0,1-12,11.81Q519,522.8,481.26,535c-1.22.39-2.48.63-4.59,1.16,2.25-9.93,4.13-19.2,6.58-28.32.57-2.15,2.88-4,4.7-5.62q50.35-45.49,100.79-90.91c2.72-2.45,5.38-5,8.28-7.21A38.29,38.29,0,0,1,602.7,401Z"/><path class="cls-3" d="M98.48,412.76,95,401.82c6.21-1,8.11,4,11.68,5.81q35.89,32.5,71.79,65C189.85,482.9,201.38,493,212.6,503.4a16.29,16.29,0,0,1,4.28,7.47c2.16,8.07,3.8,16.28,5.81,25.16-2.63-.61-4.7-.93-6.67-1.57-24-7.86-48-15.86-72.06-23.59A20,20,0,0,1,130.59,498Q114.57,455.38,98.48,412.76Z"/></g></g></svg>