<svg xmlns="http://www.w3.org/2000/svg" viewBox="0 0 963.24 839.21"><defs><style>.cls-1{fill:#a201ac;}.cls-2{fill:#68006f;}.cls-3{fill:#fefefe;}.cls-4{fill:#b9b9b9;}.cls-5{fill:#890091;}</style></defs><g id="Layer_2" data-name="Layer 2"><g id="Layer_1-2" data-name="Layer 1"><path class="cls-1" d="M472.72,429q-20,33.19-39.89,66.4-39.07,65.28-78.1,130.6c-.27.45-.61.86-1.26,1.78L102.06,210.83c1.27-.12,2.23-.3,3.19-.3q64.65,0,129.32-.06a5.62,5.62,0,0,1,5.43,2.94q55.8,86.73,111.75,173.35c.91,1.41,1.86,2.8,3.37,5.07L472.68,194.91c6.83,10.9,13.36,21.3,19.88,31.71q23.83,38.06,47.64,76.13a32.93,32.93,0,0,1,2.06,5,44.52,44.52,0,0,0-3.31,4.38c-4.32,7.42-8.56,14.88-12.79,22.35Q499.43,381.73,472.72,429Z"/><path class="cls-2" d="M472.72,429q26.71-47.23,53.44-94.47c4.23-7.47,8.47-14.93,12.79-22.35a44.52,44.52,0,0,1,3.31-4.38q13.62,22.53,27.23,45.05,10.88,18,21.68,36.07c1.45,2.42,2.53,2.65,4.1,0q26.55-44.37,53.2-88.67c18.7-31.12,37.64-62.09,56-93.43,3.35-5.72,6.8-7.4,13.15-7.35,36.87.31,73.75.15,110.63.15h5.43C754.4,341.05,675.55,481.8,596.36,623.18c-2.87-4.35-5.56-8.28-8.09-12.3q-26.21-41.58-52.35-83.18-29.79-47.45-59.54-94.92A26.32,26.32,0,0,0,472.72,429Z"/><path class="cls-1" d="M870.89.29Q903.11.14,935.34,0c9.12,0,18.23,0,27.9,0-5.53,9.85-10.83,19.27-16.11,28.69-14.19,25.3-28.43,50.58-42.49,76-1.5,2.71-3.1,3.59-6.14,3.58-78.14-.08-156.28,0-234.42-.2-4.59,0-6.73,1.64-8.86,5.31Q627.65,161,599.77,208.42c-.51.88-1.11,1.72-2,3.13-2.71-4.72-5.19-9-7.65-13.34q-28.22-49.54-56.43-99.09c-1.12-2-1.54-3.44-.21-5.69Q560,48.65,586.22,3.69c1.42-2.43,3-3.15,5.67-3.14q75.42,0,150.84-.09a26.7,26.7,0,0,0,3.84.55q60.07,0,120.15,0A25.19,25.19,0,0,0,870.89.29Z"/><path class="cls-3" d="M57.33,110.7c-.53-2-1-4-1.64-6a4.44,4.44,0,0,0-1.41-2.15c-3.72-2.63-4.61-5.49-2.77-9.54-.22-.28-.41-.81-.69-.86-4.38-.78-6.56-2.54-5.6-7.74.88-4.75-1-5.64-5.41-3.6a1.79,1.79,0,0,1-1,.21c-.48-4.16-1.17-8.08-1.32-12-.13-3.65-3.67-2-4.8-3.5s-1.08-4.62-2.42-5.31C25.93,58,25,57.72,22.72,54.44c1.39-2.08,2.73-4.1,4-6-.83-.74-.92-.88-1-.9-6.48-1.6-7.39-3-6.52-9.53a20.4,20.4,0,0,0-.27-4,17.73,17.73,0,0,0-4,.67c-3.17,1.3-3.46-1-2.84-2.69,1.29-3.6,1.82-5.86-3.37-6-.94,0-2.33-4-2.48-6.16-.16-2.37.64-4.73-2.51-6-.69.95-1.35,1.84-2.66,3.62C.36,12-.8,7.5.82,2.8l68.46,0,3.45,4.15c2.76-.5,4.49-1.08,6.21-1.09q28.59-.09,57.17,0c2.19,0,4.47.3,4-3.07,1.59,0,3.18-.11,4.76-.11q74.1,0,148.2,0,32.18,0,64.35.08c-.45.94-1.39,2-1.23,2.79.24,1.24,1.34,3.35,1.92,3.3,3-.25,4.41,1.2,5,3.77.5,2,.79,4.14,1.37,7.26,3.81,1,4.21,5,4.52,9.51.11,1.57,2.35,3,3.72,4.45.53.55,1.82.78,1.9,1.29.68,4.6,4.44,5.63,7.74,6.57-.37,5.06-1,9.42,3.74,12.7,1.46,1,1.78,3.9,2.28,6,.59,2.49.08,5.48,3.73,6.09.38.07.79.64,1,1.07,2.41,5.31,2.4,5.31,8.44,4.79-3,9.42,2.46,14.46,10.38,18.31-4,1.9-4.75,4.86-4.83,8.16,0,.12.11.25.12.38.22,5.12-.84,6.07-4.82,5.1-.44,3.82-.88,7.69-1.27,11-8.64,1.71-5.22,8.86-7,13.72-4-1.71-5.59.19-6.26,4.05a4.59,4.59,0,0,1-2.8,3c-2,.53-4.33.53-3.71,3.34.34,1.54,1.79,2.84,2.92,4.51-2.35,1.1-5.4,2.42-8.32,4-.55.29-.69,1.53-.8,2.36-.23,1.62-.31,3.27-.39,4.28-2.27.58-4.64.5-5.34,1.55s0,3.34.71,4.8c1.37,2.87.67,5.25-2.26,5.3-4.35.07-5.23,2.52-5.76,5.83a11.4,11.4,0,0,1-.62,1.73,26,26,0,0,0-3.1-.64c-2.17-.19-2.94.77-2.19,2.89,1.73,4.89-.54,10-4.78,11.51-2.64-4.26-4.36-9.56-8-12.29-4.51-3.36-5.09-7.89-7-12.16a3.9,3.9,0,0,0-2.09-2.1c-3.64-.86-3.5-3-2.75-6,1.34-5.31.39-6.41-5-7.05-.55-.06-1.49-.64-1.49-1,.1-4.9-3.7-5.43-7.1-6.25,1.49-10.49.8-12.29-4.71-11.81-.73-3.88-2.41-7-7.76-6.21.24-2.77.27-5.11.69-7.38.78-4.33.41-5-3.85-5.43-2.42-.27-5-2.16-7.06.86-1,0-2.11.1-3.17.1q-115.83,0-231.66,0C59.45,110.8,58.39,110.73,57.33,110.7Z"/><path class="cls-4" d="M57.33,110.7c1.06,0,2.12.1,3.18.1q115.83,0,231.66,0c1.06,0,2.12-.07,3.17-.1l2.29.26v.38H55.78c.11-.14.21-.4.38-.45A6.64,6.64,0,0,1,57.33,110.7Z"/><path class="cls-5" d="M870.89.29a25.19,25.19,0,0,1-4.17.69q-60.08.08-120.15,0a26.7,26.7,0,0,1-3.84-.55,21,21,0,0,1,2.35-.24Q807,.16,868.91.14C869.57.14,870.23.23,870.89.29Z"/><path class="cls-3" d="M69.28,2.78l70.84,0c.46,3.38-1.82,3.09-4,3.08q-28.59,0-57.17,0c-1.72,0-3.45.59-6.21,1.09Z"/><path class="cls-3" d="M475,839.21c-4.23-7.61-8.08-14.63-12-21.6-11-19.39-22-38.73-32.94-58.13-10.16-18-20.18-36.14-30.4-54.14-2.31-4.08.85-6.59,2.33-9.35,6.18-11.51,12.71-22.82,19.07-34.24q13.45-24.15,26.84-48.35,10.53-19,21.06-38c.88-1.6,1.92-3.11,3.37-5.44,2.93,4.52,5.7,8.72,8.39,13Q493.39,603,506,623.14c8.92,14.18,17.78,28.39,26.71,42.56,5.91,9.37,11.51,19,18,27.9,3.3,4.5,1.88,7.63-.25,11.41-8.15,14.45-16.24,28.93-24.39,43.38-7.46,13.2-15,26.34-22.42,39.58-9.12,16.35-18.1,32.77-27.16,49.15A20.84,20.84,0,0,1,475,839.21Z"/></g></g></svg>